<?xml version="1.0" encoding="UTF-8" standalone="no"?>
<!-- Generator: Adobe Illustrator 15.0.2, SVG Export Plug-In . SVG Version: 6.00 Build 0)  -->

<svg
   version="1.1"
   id="Layer_1"
   x="0px"
   y="0px"
   width="132"
   height="55"
   viewBox="0 0 123.75 51.562505"
   enable-background="new 0 0 363 227"
   xml:space="preserve"
   inkscape:version="1.1.1 (3bf5ae0d25, 2021-09-20)"
   sodipodi:docname="logo.svg"
   inkscape:export-filename="C:\r62ad004\logo.png"
   inkscape:export-xdpi="96"
   inkscape:export-ydpi="96"
   xmlns:inkscape="http://www.inkscape.org/namespaces/inkscape"
   xmlns:sodipodi="http://sodipodi.sourceforge.net/DTD/sodipodi-0.dtd"
   xmlns="http://www.w3.org/2000/svg"
   xmlns:svg="http://www.w3.org/2000/svg"
   xmlns:rdf="http://www.w3.org/1999/02/22-rdf-syntax-ns#"
   xmlns:cc="http://creativecommons.org/ns#"
   xmlns:dc="http://purl.org/dc/elements/1.1/"><metadata
     id="metadata3108"><rdf:RDF><cc:Work
         rdf:about=""><dc:format>image/svg+xml</dc:format><dc:type
           rdf:resource="http://purl.org/dc/dcmitype/StillImage" /></cc:Work></rdf:RDF></metadata><defs
     id="defs3106" /><sodipodi:namedview
     pagecolor="#ffffff"
     bordercolor="#666666"
     borderopacity="1"
     objecttolerance="10"
     gridtolerance="10"
     guidetolerance="10"
     inkscape:pageopacity="0"
     inkscape:pageshadow="2"
     inkscape:window-width="1920"
     inkscape:window-height="1177"
     id="namedview3104"
     showgrid="false"
     fit-margin-top="0"
     fit-margin-left="0"
     fit-margin-right="0"
     fit-margin-bottom="0"
     inkscape:zoom="13.265152"
     inkscape:cx="50.206739"
     inkscape:cy="27.478013"
     inkscape:window-x="-8"
     inkscape:window-y="-8"
     inkscape:window-maximized="1"
     inkscape:current-layer="g2986"
     showguides="true"
     inkscape:guide-bbox="true"
     units="px"
     inkscape:pagecheckerboard="0"
     width="132px" /><g
     id="g2986"
     transform="matrix(0.05627251,0,0,0.05565633,-2.064408e-7,4.6875005)"><g
   id="g25"
   transform="translate(83.300583)"><path
     id="path3"
     d="M 72.970837,173.0708 V 499.80501 H 24.269456 C 10.892012,499.8131 -2.4332255e-6,488.85393 -2.4332255e-6,475.55387 V 54.528596 L 31.360237,12.870759 C 36.696599,5.799529 48.335866,0 57.213554,0 h 64.353066 c 8.8858,0 23.48159,0 32.31056,0 h 64.35306 c 8.88581,0 20.51696,5.799529 25.86145,12.870759 l 31.35211,41.657837 h 366.62482 c 13.33686,0 24.21258,10.861983 24.21258,24.153932 V 173.0708 H 348.42276 l -31.35212,-41.65785 c -5.34448,-7.07121 -16.97562,-12.86265 -25.86145,-12.86265 h -64.35305 c -8.8858,0 -23.42474,0 -32.31056,0 h -64.35306 c -8.8858,0 -20.51696,5.79954 -25.86143,12.86265 z"
     inkscape:connector-curvature="0"
     style="fill:#ffffff;fill-opacity:1;stroke-width:0.999906" /><path
     id="path5"
     d="M 807.96595,300.07871 H 432.10002 l -32.2147,-42.73333 c -5.47185,-7.26384 -17.40659,-13.22818 -26.45969,-13.22818 h -65.98682 c -9.11142,0 -24.01946,0 -33.18082,0 h -65.93685 c -9.11141,0 -21.03784,5.96434 -26.518,13.22818 l -32.1564,42.73333 v 433.08937 c 0,13.678 11.16853,24.83199 24.77734,24.83199 h 633.53355 c 13.71706,0 24.88561,-11.17066 24.88561,-24.83199 V 325.01897 c 0.008,-13.76962 -11.16022,-24.94026 -24.87729,-24.94026 z"
     inkscape:connector-curvature="0"
     style="fill:#ffffff;fill-opacity:1;stroke-width:0.999906" /><text
     xml:space="preserve"
     style="font-style:normal;font-variant:normal;font-weight:bold;font-stretch:normal;font-size:178.671px;line-height:418.76px;font-family:'PT Sans';-inkscape-font-specification:'PT Sans Bold';letter-spacing:0px;word-spacing:0px;fill:#ffffff;fill-opacity:1;stroke:none;stroke-width:16.7504px;stroke-linecap:butt;stroke-linejoin:miter;stroke-opacity:1"
     x="909.55176"
     y="471.52698"
     id="text4486"
     transform="scale(0.99441639,1.005615)"><tspan
       sodipodi:role="line"
       id="tspan4484"
       x="909.55176"
       y="471.52698"
       style="font-style:normal;font-variant:normal;font-weight:bold;font-stretch:normal;font-size:178.671px;font-family:'PT Sans';-inkscape-font-specification:'PT Sans Bold';fill:#ffffff;fill-opacity:1;stroke-width:16.7504px">OpenData.HRO</tspan></text></g>
</g></svg>
