<?xml version="1.0" encoding="UTF-8" standalone="no"?>
<!-- Generator: Adobe Illustrator 15.0.2, SVG Export Plug-In . SVG Version: 6.00 Build 0)  -->

<svg
   version="1.1"
   id="Layer_1"
   x="0px"
   y="0px"
   width="420"
   height="220"
   viewBox="0 0 393.75003 206.25003"
   enable-background="new 0 0 363 227"
   xml:space="preserve"
   inkscape:version="1.1.1 (3bf5ae0d25, 2021-09-20)"
   sodipodi:docname="promoted.svg"
   inkscape:export-filename="C:\r62ad004\promoted.png"
   inkscape:export-xdpi="96"
   inkscape:export-ydpi="96"
   xmlns:inkscape="http://www.inkscape.org/namespaces/inkscape"
   xmlns:sodipodi="http://sodipodi.sourceforge.net/DTD/sodipodi-0.dtd"
   xmlns="http://www.w3.org/2000/svg"
   xmlns:svg="http://www.w3.org/2000/svg"
   xmlns:rdf="http://www.w3.org/1999/02/22-rdf-syntax-ns#"
   xmlns:cc="http://creativecommons.org/ns#"
   xmlns:dc="http://purl.org/dc/elements/1.1/"><metadata
   id="metadata3108"><rdf:RDF><cc:Work
       rdf:about=""><dc:format>image/svg+xml</dc:format><dc:type
         rdf:resource="http://purl.org/dc/dcmitype/StillImage" /></cc:Work></rdf:RDF></metadata><defs
   id="defs3106" /><sodipodi:namedview
   pagecolor="#ffffff"
   bordercolor="#666666"
   borderopacity="1"
   objecttolerance="10"
   gridtolerance="10"
   guidetolerance="10"
   inkscape:pageopacity="0"
   inkscape:pageshadow="2"
   inkscape:window-width="1920"
   inkscape:window-height="1177"
   id="namedview3104"
   showgrid="false"
   fit-margin-top="0"
   fit-margin-left="0"
   fit-margin-right="0"
   fit-margin-bottom="0"
   inkscape:zoom="4.1690476"
   inkscape:cx="210"
   inkscape:cy="109.97716"
   inkscape:window-x="-8"
   inkscape:window-y="-8"
   inkscape:window-maximized="1"
   inkscape:current-layer="Layer_1"
   showguides="true"
   inkscape:guide-bbox="true"
   units="px"
   inkscape:pagecheckerboard="0" /><g
   id="g2990"
   transform="matrix(0.15287492,0,0,0.15287492,18.738388,-241.77268)"><g
     transform="translate(748.74431,1733.7541)"
     id="g2986"><path
       style="fill:#006cb7"
       inkscape:connector-curvature="0"
       d="M 72.984576,173.0708 V 499.80501 H 24.274025 C 10.894063,499.8131 -2.4336836e-6,488.85393 -2.4336836e-6,475.55387 V 54.528596 L 31.366141,12.870759 C 36.703508,5.799529 48.344966,0 57.224326,0 h 64.365184 c 8.88747,0 23.48601,0 32.31664,0 h 64.36518 c 8.88748,0 20.52082,5.799529 25.86632,12.870759 l 31.35801,41.657837 h 366.69385 c 13.33937,0 24.21713,10.861983 24.21713,24.153932 V 173.0708 H 348.48836 l -31.35802,-41.65785 c -5.34549,-7.07121 -16.97882,-12.86265 -25.86632,-12.86265 h -64.36517 c -8.88747,0 -23.42915,0 -32.31664,0 h -64.36518 c -8.88747,0 -20.52082,5.79954 -25.8663,12.86265 z"
       id="path3" /><path
       style="fill:#d81920"
       inkscape:connector-curvature="0"
       d="m 808.11807,300.07871 h -375.9367 l -32.22076,-42.73333 c -5.47288,-7.26384 -17.40987,-13.22818 -26.46467,-13.22818 h -65.99925 c -9.11313,0 -24.02398,0 -33.18706,0 h -65.94927 c -9.11312,0 -21.0418,5.96434 -26.52299,13.22818 l -32.16246,42.73333 v 433.08937 c 0,13.678 11.17064,24.83199 24.78201,24.83199 h 633.65283 c 13.71964,0 24.89029,-11.17066 24.89029,-24.83199 V 325.01897 c 0.008,-13.76962 -11.16232,-24.94026 -24.88197,-24.94026 z"
       id="path5" /></g></g><text
   xml:space="preserve"
   style="font-style:normal;font-variant:normal;font-weight:bold;font-stretch:normal;font-size:35px;line-height:23.4375px;font-family:'PT Sans';-inkscape-font-specification:'PT Sans Bold';letter-spacing:0px;word-spacing:0px;fill:#000000;fill-opacity:1;stroke:none;stroke-width:0.9375px;stroke-linecap:butt;stroke-linejoin:miter;stroke-opacity:1"
   x="85.140244"
   y="182.86687"
   id="text15"><tspan
     sodipodi:role="line"
     id="tspan13"
     x="85.140244"
     y="182.86687"
     style="font-style:normal;font-variant:normal;font-weight:bold;font-stretch:normal;font-size:35px;font-family:'PT Sans';-inkscape-font-specification:'PT Sans Bold';stroke-width:0.9375px">OpenData.HRO</tspan></text>
</svg>
